<?xml version="1.0" encoding="UTF-8" standalone="no"?>
<!-- Created with Inkscape (http://www.inkscape.org/) -->

<svg
   viewBox="0 0 99.166359 137.99432"
   version="1.1"
   id="svg1"
   xmlns:inkscape="http://www.inkscape.org/namespaces/inkscape"
   xmlns="http://www.w3.org/2000/svg"
   xmlns:svg="http://www.w3.org/2000/svg">
  <defs
     id="defs1">
    <clipPath
       clipPathUnits="userSpaceOnUse"
       id="clipPath78-9">
      <path
         d="M 0,2500 H 5000 V 0 H 0 Z"
         transform="translate(-1419.1759,-904.2233)"
         id="path78-1" />
    </clipPath>
    <clipPath
       clipPathUnits="userSpaceOnUse"
       id="clipPath80">
      <path
         d="M 0,2500 H 5000 V 0 H 0 Z"
         transform="translate(-1390.0638,-862.70435)"
         id="path80" />
    </clipPath>
    <clipPath
       clipPathUnits="userSpaceOnUse"
       id="clipPath82">
      <path
         d="M 0,2500 H 5000 V 0 H 0 Z"
         transform="translate(-1419.1759,-904.2233)"
         id="path82" />
    </clipPath>
  </defs>
  <g
     inkscape:label="Capa 1"
     inkscape:groupmode="layer"
     id="layer1"
     transform="translate(-36.446512,-80.342301)">
    <path
       id="path77"
       d="m 0,0 c -33.8,5.91 -57.439,-10.909 -79.095,-33.699 21.676,-20.846 16.049,-64.907 -12.589,-79.378 -24.51,-12.366 -21.272,-26.534 -14.289,-46.591 8.46,-24.368 14.349,-49.627 16.434,-74.886 -15.503,24.389 -34.164,47.502 -44.951,73.854 -4.311,10.524 7.529,28.78 14.39,42.32 2.955,5.829 11.961,8.582 19.875,13.844 -4.412,6.881 -8.197,12.811 -11.901,18.62 -7.752,-9.432 -15.281,-18.539 -22.769,-27.667 -6.922,-8.44 -12.711,-18.317 -21.069,-24.895 -5.89,-4.634 -15.16,-5.262 -23.093,-6.861 -4.777,-0.971 -11.112,1.518 -14.593,-0.789 -27.566,-18.216 -56.994,-3.076 -85.349,-4.696 -22.567,-1.295 -31.675,16.678 -25.219,37.909 2.227,7.347 0.931,15.726 2.874,23.214 10.889,41.916 29.833,78.205 71.142,98.121 25.218,12.143 49.546,26.877 75.837,35.803 34.933,11.84 68.995,29.59 108.219,24.307 8.804,-1.173 18.256,1.903 27.344,3.482 C 3.785,75.938 23.7,70.17 37.746,52.298 43.009,45.599 44.182,34.306 44.122,25.137 44,12.386 40.964,-0.324 38.961,-14.593 35.905,-6.355 34.67,2.813 29.59,8.581 26.352,12.245 17.406,10.909 11.03,11.799 7.347,7.873 3.684,3.926 0,0"
       style="fill:#ffffff;fill-opacity:1;fill-rule:nonzero;stroke:none"
       transform="matrix(0.17638887,-0.3055145,-0.3055145,-0.17638887,79.74691,101.16768)"
       clip-path="url(#clipPath78-9)" />
    <path
       id="path79"
       d="M 0,0 C -15.24,31.836 -14.856,32.929 13.419,37.524 14.613,10.626 33.132,-20.523 -10.342,-31.978 6.679,-58.917 32.97,-76.525 38.414,-110.487 18.418,-91.441 0.809,-75.776 -15.483,-58.836 -34.852,-38.698 -31.493,-26.675 0,0"
       style="fill:#ffffff;fill-opacity:1;fill-rule:nonzero;stroke:none"
       transform="matrix(0.17638887,-0.3055145,-0.3055145,-0.17638887,87.296479,117.38534)"
       clip-path="url(#clipPath80)" />
    <path
       id="path81"
       d="m 0,0 c 3.684,3.926 7.347,7.873 11.03,11.799 9.958,-16.454 16.414,-32.443 -0.668,-49.019 -15.422,-14.957 2.794,-23.093 8.278,-33.496 4.757,-8.987 10.667,-17.366 16.07,-26.008 -2.833,-1.761 -5.667,-3.542 -8.48,-5.323 -9.856,16.05 -20.846,31.553 -28.983,48.453 -2.975,6.173 1.053,15.625 1.539,23.62 C -0.627,-19.997 -0.385,-9.998 0,0"
       style="fill:#ffffff;fill-opacity:1;fill-rule:nonzero;stroke:none"
       transform="matrix(0.17638887,-0.3055145,-0.3055145,-0.17638887,79.74691,101.16768)"
       clip-path="url(#clipPath82)" />
  </g>
</svg>
