<svg xmlns="http://www.w3.org/2000/svg" viewBox="0 0 3439.5465 757.5454">
  <defs>
    <clipPath id="a" clipPathUnits="userSpaceOnUse">
      <path d="M-1580.7532 647.892h2886.397v-944.751h-2886.397Z"/>
    </clipPath>
    <clipPath id="b" clipPathUnits="userSpaceOnUse">
      <path d="M-1774.2332 539.295h2886.397v-944.751h-2886.397Z"/>
    </clipPath>
    <clipPath id="c" clipPathUnits="userSpaceOnUse">
      <path d="M-1319.0179 499.8367h2886.397v-944.751h-2886.397Z"/>
    </clipPath>
    <clipPath id="d" clipPathUnits="userSpaceOnUse">
      <path d="M-1404.9862 264.3678h2886.397v-944.751h-2886.397Z"/>
    </clipPath>
    <clipPath id="e" clipPathUnits="userSpaceOnUse">
      <path d="M-1404.9347 264.381h2886.397V-680.37h-2886.397Z"/>
    </clipPath>
    <clipPath id="f" clipPathUnits="userSpaceOnUse">
      <path d="M-2487.6583 537.3769h2886.397v-944.751h-2886.397Z"/>
    </clipPath>
  </defs>
  <path fill="#251915" d="M0 0c0-45.511-24.965-76.6-67.242-76.6-38.266 0-67.217 35.496-67.217 77.431 0 45.459 24.966 75.848 67.217 75.848C-28.923 76.679 0 41.539 0 0m-171.55 0c0-64.222 44.323-108.559 104.308-108.559 59.602 0 104.334 43.11 104.334 109.39 0 65.859-45.893 107.781-104.334 107.781-59.181 0-104.308-41.513-104.308-108.612m-42.13 103.853h-36.828v-207.63h36.828zm-139.442 87.788h-36.195V-38.698c0-49.879 28.541-69.857 65.514-69.857 17.325 0 31.8 3.589 41.38 7.97l-8.854 29.136c-7.204-3.18-17.629-6.004-27.697-6.004-21.283 0-34.148 13.604-34.148 42.331zM-518.441 77.448c35.667 0 57.254-22.683 57.254-63.048h-114.19c4.01 41.13 25.638 63.048 56.936 63.048m89.332-92.197c.791 8.789 1.161 17.59 1.161 27.144 0 52.755-30.032 96.221-89.741 96.221-56.066 0-94.121-46.29-94.121-108.612 0-68.669 37.646-108.559 97.315-108.559 29.663 0 53.718 6.004 72.996 14.726l-8.445 30.759c-17.643-7.997-36.05-13.526-60.104-13.526-36.868 0-60.104 23.119-64.921 61.847zM-742.437-76.6c-36.446 0-64.103 32.29-64.103 76.6 0 43.545 24.821 77.457 63.693 77.457 22.076 0 41.288-13.156 51.29-25.942V-51.462c-12.43-14.806-31.233-25.138-50.88-25.138m-8.024-31.959c32.065 0 52.491 16.349 64.485 33.094 5.635-19.925 20.862-30.323 46.527-30.323l7.6 27.948c-11.625 0-23.606 4.025-23.606 24.372v245.105h-36.102V83.065c-11.203 11.56-31.642 25.547-59.326 25.547-50.432 0-92.537-46.699-92.537-109.8 0-65.462 41.247-107.371 92.959-107.371M-969.064 77.448c35.482 0 57.029-22.683 57.029-63.048h-113.596c3.984 41.13 25.479 63.048 56.567 63.048m88.936-92.197c.779 8.789 1.187 17.59 1.187 27.144 0 52.755-29.926 96.221-89.279 96.221-55.828 0-93.672-46.29-93.672-108.612 0-68.669 37.435-108.559 96.813-108.559 29.504 0 53.454 6.004 72.547 14.726l-8.352 30.759c-17.536-7.997-35.851-13.526-59.788-13.526-36.642 0-59.8 23.119-64.564 61.847zm-186.394 120.982c-5.608 1.623-14.014 2.375-22.062 2.375-35.747 0-57.004-23.897-67.059-49.879v45.128h-34.887v-207.643h36.088v97.013c0 54.312 29.32 79.04 59.049 79.04 6.809 0 13.235-1.2 18.038-3.14zM-1298.6-75.469c26.127 0 44.256 6.809 62.387 17.234l11.638-31.617c-19.714-10.728-44.666-18.711-78.498-18.711-73.643 0-124.312 55.091-124.312 143.303 0 85.519 50.669 145.743 129.154 145.743 26.958 0 48.321-5.186 67.626-14.37l-11.678-31.946c-16.468 7.97-33.014 13.182-56.317 13.182-51.936 0-89.74-40.734-89.74-111 0-67.085 37.408-111.818 89.74-111.818" clip-path="url(#a)" transform="matrix(1.33333 0 0 -1.33333 1903.18 612.7947)"/>
  <path fill="#251915" d="M0 0h-19.636l-11.818-33.712c-1.518-5.038-3.037-10.817-4.778-17.078h-.26c-1.741 7.002-3.001 12.04-4.52 17.337L-52.829 0h-20.375l-5.04-68.424h13.078l2.519 40.232c.26 6.298.482 12.855.482 19.115h.778c1.519-6.001 3.52-14.04 4.78-19.374l12.336-38.973h14.078l12.335 38.009c2.001 6.298 4.002 14.337 5.779 20.338h.742c.26-7.261.26-13.818.518-19.115l2.482-40.232H5.259Zm-139.631.015h57.347v-11.336h-21.859v-57.088h-13.596v57.088h-21.892z" clip-path="url(#b)" transform="matrix(1.33333 0 0 -1.33333 2161.1533 467.9987)"/>
  <path fill="#65b32e" d="m0 0 55.181 151.259 163.687-47.714Z" clip-path="url(#c)" transform="matrix(1.33333 0 0 -1.33333 1554.1996 415.3875)"/>
  <path fill="#006237" d="m0 0-30.693-84.081 163.594-47.847 193.058 90.125z" clip-path="url(#d)" transform="matrix(1.33333 0 0 -1.33333 1668.824 101.429)"/>
  <path fill="#008b39" d="m0 0-579.361 76.085L-30.64-84.068Z" clip-path="url(#e)" transform="matrix(1.33333 0 0 -1.33333 1668.7553 101.4467)"/>
  <path fill="#009c43" d="M0 0v-130.028c0-53.112-45.325-87.42-115.484-87.42-71.821 0-114.706 32.263-114.706 86.298V0h59.946v-126.993c0-33.107 17.906-49.206 54.76-49.206 38.714 0 56.74 15.637 56.74 49.206V0Zm142.501-82.691c74.025-17.114 102.869-37.132 102.869-71.466 0-38.346-47.753-63.114-121.685-63.114-42.106 0-80.834 7.878-106.275 21.627l-4.657 2.534 27.327 37.396 5.054-3.088c18.948-11.586 49.693-18.777 80.227-18.777 35.323 0 57.266 7.93 57.266 20.717 0 12.43-10.569 21.231-68.298 34.836-44.442 10.371-85.571 25.348-85.571 64.486 0 35.918 46.658 60.026 116.118 60.026 33.344 0 63.073-4.79 90.888-14.674l5.186-1.847-18.355-37.659-5.515 2.229c-22.049 8.894-47.094 13.433-74.447 13.433-33.384 0-53.335-10.741-53.335-21.112 0-8.604 8.471-15.215 53.203-25.547m-375.082-124.617c-27.974-5.78-56.62-9.963-84.805-9.963-48.453 0-77.39 21.575-77.39 57.704V-.061h59.089v-157.012c0-14.251 6.914-20.321 23.104-20.321 14.739 0 35.205 3.681 56.608 8.946zM-481.969-67.021c0-20.123-24.108-32.157-64.485-32.157-9.448 0-18.236.224-25.612.633v61.478c7.89.343 17.022.514 28.013.514 38.873 0 62.084-11.387 62.084-30.468M-543.248 3.02c-26.891 0-53.942-.989-78.247-2.81l-9.488-.726v-214.03h58.917v76.428c6.637-.224 13.604-.343 20.809-.343 78.827 0 127.795 28.225 127.795 73.657 0 41.196-47.014 67.824-119.786 67.824" clip-path="url(#f)" transform="matrix(1.33333 0 0 -1.33333 3112.3867 465.441)"/>
</svg>
