<svg xmlns="http://www.w3.org/2000/svg" xmlns:xlink="http://www.w3.org/1999/xlink" viewBox="0 0 1805.8855 506.74">
  <defs>
    <path id="a" d="M0 0h6666.6665v3333.3333H0Z"/>
  </defs>
  <defs>
    <clipPath id="b" clipPathUnits="userSpaceOnUse">
      <path d="M-105.287 498.3623h5000v-2500h-5000Z"/>
    </clipPath>
    <clipPath id="c" clipPathUnits="userSpaceOnUse">
      <path d="M-944.3538 342.7543h5000v-2500h-5000Z"/>
    </clipPath>
    <clipPath id="d" clipPathUnits="userSpaceOnUse">
      <path d="M-1028.5686 295.486h5000v-2500h-5000Z"/>
    </clipPath>
    <clipPath id="f" clipPathUnits="userSpaceOnUse">
      <path d="M-.0001 65.8412h95.265V.0012H-.0001Z"/>
    </clipPath>
    <clipPath id="e" clipPathUnits="userSpaceOnUse">
      <use xlink:href="#a"/>
    </clipPath>
    <clipPath id="g" clipPathUnits="userSpaceOnUse">
      <path d="M-867.849 175.8205h5000v-2500h-5000Z"/>
    </clipPath>
    <clipPath id="i" clipPathUnits="userSpaceOnUse">
      <path d="M-252.1745 33.1161H.0005v-69.71h-252.175Z"/>
    </clipPath>
    <clipPath id="h" clipPathUnits="userSpaceOnUse">
      <use xlink:href="#a"/>
    </clipPath>
    <clipPath id="j" clipPathUnits="userSpaceOnUse">
      <path d="M-1339.0962 294.651h5000v-2500h-5000Z"/>
    </clipPath>
  </defs>
  <path fill="#e6007e" d="M0 0h133.51c6.592 0 12.264 4.661 13.542 11.129l35.176 178.069c.351 1.777.349 3.606-.006 5.383L147.33 368.959c-1.291 6.452-6.956 11.096-13.535 11.096H0c-7.624 0-13.804-6.18-13.804-13.804V13.804C-13.804 6.18-7.624 0 0 0" clip-path="url(#b)" transform="matrix(1.33333 0 0 -1.33333 18.4053 506.74)"/>
  <path fill="#fff" d="M175.261 379.2725v34.5l-67.922 20.3282 2.9376-.4063c6.5117-.9765 12.4648-1.7578 17.8593-2.3437 5.3868-.582 11.4649-.875 18.2344-.875h28.8906v24.3437H82.1984v-33.8281l68.1875-21.125-2.8125.3906c-6.1445 1.0742-11.8671 1.9024-17.1718 2.4844-5.3008.5742-11.4297.8594-18.3907.8594H82.1984v-24.3282Zm-31.5626-88.1289c6.5118 0 12.3555 1.4297 17.5313 4.2813 5.168 2.8555 9.246 7.1797 12.2344 12.9687 2.9765 5.793 4.4687 12.922 4.4687 21.3907 0 12.75-3.0703 22.3828-9.2187 28.8906-6.1563 6.5117-14.4922 9.7656-25.0157 9.7656h-61.5v-27.5469h60.7032c5.2617 0 9.121-.8671 11.578-2.6093 2.4493-1.7383 3.672-4.5703 3.672-8.5 0-3.9141-1.2227-6.7422-3.672-8.4844-2.457-1.7383-6.3163-2.6094-11.578-2.6094H82.1984v-27.5469zm-61.5-71.9414 19.1094 2.8125v30.75h17.3906v-27.0156h18.5938v27.0156h18.7187v-32.8906h19.25v60.4375H82.1984Zm0-84.1132 93.0625 23.5312v35.5781l-93.0625 25v-29.0156l73.9375-14.1719-73.9375-12.703zM79.511 92.2882c0-13.9063 4.3047-24.625 12.9063-32.1563 8.6055-7.5312 20.664-11.2968 36.1719-11.2968 10.0742 0 18.8125 1.6992 26.2187 5.0937 7.3985 3.3867 13.1016 8.336 17.1094 14.8438 4.0078 6.5 6.0156 14.3398 6.0156 23.5156 0 13.918-4.3437 24.6406-13.0312 32.1718-8.6953 7.5313-20.8008 11.297-36.3125 11.297-10.0703 0-18.7852-1.6915-26.1407-5.0782-7.3515-3.3945-13.0156-8.3438-16.9843-14.8438-3.9688-6.5078-5.9532-14.3593-5.9532-23.5468zm19.5313 0c0 5.2617 2.25 9.0547 6.75 11.375 4.5 2.3125 12.1016 3.4687 22.7969 3.4687 10.6992 0 18.3437-1.1562 22.9375-3.4687 4.5937-2.3203 6.8906-6.1133 6.8906-11.375 0-5.3438-2.2695-9.1485-6.8125-11.4219-4.5508-2.2695-12.2227-3.4063-23.0156-3.4063-10.6953 0-18.2969 1.1641-22.7969 3.4844-4.5 2.3125-6.75 6.0938-6.75 11.3438zm0 0" aria-label="NUEV O"/>
  <path fill="#fff" d="M0 0c0-19.809-10.866-33.341-29.268-33.341-16.656 0-29.257 15.45-29.257 33.703 0 19.786 10.867 33.013 29.257 33.013C-12.589 33.375 0 18.08 0 0m-74.669 0c0-27.954 19.292-47.252 45.401-47.252 25.943 0 45.413 18.764 45.413 47.614 0 28.666-19.976 46.913-45.413 46.913-25.759 0-45.401-18.069-45.401-47.275m-18.338 45.204h-16.03V-45.17h16.03zm-60.694 38.21h-15.754V-16.844c0-21.71 12.423-30.406 28.516-30.406 7.541 0 13.841 1.562 18.011 3.469l-3.854 12.682c-3.136-1.384-7.673-2.614-12.055-2.614-9.264 0-14.864 5.922-14.864 18.426zm-71.957-49.704c15.524 0 24.921-9.873 24.921-27.442h-49.704c1.746 17.902 11.16 27.442 24.783 27.442m38.882-40.13c.345 3.826.506 7.657.506 11.815 0 22.962-13.072 41.881-39.061 41.881-24.403 0-40.967-20.148-40.967-47.274 0-29.889 16.386-47.252 42.357-47.252 12.911 0 23.382 2.613 31.773 6.41l-3.676 13.388c-7.679-3.481-15.691-5.887-26.161-5.887-16.047 0-26.161 10.062-28.258 26.919zm-136.38-26.921c-15.863 0-27.901 14.054-27.901 33.341 0 18.954 10.803 33.714 27.723 33.714 9.609 0 17.971-5.726 22.325-11.291V-22.4c-5.41-6.444-13.595-10.941-22.147-10.941m-3.492-13.911c13.957 0 22.848 7.117 28.068 14.405 2.453-8.673 9.08-13.199 20.251-13.199l3.308 12.165c-5.059 0-10.274 1.752-10.274 10.608V83.413h-15.714V36.155c-4.877 5.032-13.773 11.12-25.822 11.12-21.952 0-40.279-20.327-40.279-47.792 0-28.493 17.954-46.735 40.462-46.735m-95.15 80.962c15.444 0 24.823-9.873 24.823-27.442h-49.444c1.734 17.902 11.09 27.442 24.621 27.442m38.711-40.13c.339 3.826.516 7.657.516 11.815 0 22.962-13.025 41.881-38.859 41.881-24.3 0-40.772-20.148-40.772-47.274 0-29.889 16.294-47.252 42.139-47.252 12.842 0 23.266 2.613 31.577 6.41l-3.636 13.388c-7.632-3.481-15.604-5.887-26.023-5.887-15.949 0-26.029 10.062-28.102 26.919zm-81.131 52.659c-2.441.707-6.099 1.034-9.603 1.034-15.559 0-24.811-10.401-29.188-21.711v19.643h-15.185v-90.379h15.708v42.226c0 23.64 12.762 34.403 25.702 34.403 2.963 0 5.76-.522 7.851-1.367zm-101.014-79.088c11.371 0 19.263 2.964 27.154 7.501l5.066-13.761c-8.581-4.67-19.442-8.144-34.168-8.144-32.053 0-54.108 23.979-54.108 62.374 0 37.223 22.055 63.437 56.216 63.437 11.734 0 21.032-2.257 29.435-6.255l-5.083-13.905c-7.168 3.469-14.37 5.738-24.512 5.738-22.607 0-39.061-17.73-39.061-48.314 0-29.2 16.282-48.671 39.061-48.671" clip-path="url(#c)" transform="matrix(1.33333 0 0 -1.33333 1137.161 299.2628)"/>
  <path fill="#fff" d="M0 0h-8.547l-5.144-14.674c-.66-2.192-1.322-4.708-2.08-7.433h-.113c-.758 3.047-1.306 5.241-1.967 7.546L-22.994 0h-8.869l-2.194-29.782h5.693l1.096 17.511c.113 2.741.21 5.595.21 8.32h.338c.662-2.612 1.533-6.111 2.081-8.433l5.37-16.963h6.127l5.369 16.544c.871 2.741 1.742 6.24 2.515 8.852h.323c.114-3.16.114-6.014.226-8.32l1.08-17.511h5.918zm-60.776.006h24.961v-4.934h-9.514v-24.848h-5.918v24.848h-9.529z" clip-path="url(#d)" transform="matrix(1.33333 0 0 -1.33333 1249.4474 236.2384)"/>
  <g clip-path="url(#e)" opacity=".5" transform="translate(-121.9773 -157.743)">
    <path fill="#fff" d="m0 0 24.018 65.837 71.247-20.768Z" clip-path="url(#f)" transform="matrix(1.33333 0 0 -1.33333 1107.2401 371.0817)"/>
  </g>
  <path fill="#fff" d="m0 0-13.359-36.597 71.206-20.826 84.031 39.228z" clip-path="url(#g)" transform="matrix(1.33333 0 0 -1.33333 1035.1546 76.6844)"/>
  <g clip-path="url(#h)" opacity=".5" transform="translate(-121.9773 -157.743)">
    <path fill="#fff" d="m0 0-252.174 33.117 238.838-69.709Z" clip-path="url(#i)" transform="matrix(1.33333 0 0 -1.33333 1157.102 234.435)"/>
  </g>
  <path fill="#fff" d="M0 0v-56.596c0-23.118-19.728-38.051-50.266-38.051-31.261 0-49.927 14.043-49.927 37.562V0h26.092v-55.275c0-14.411 7.794-21.418 23.835-21.418 16.851 0 24.697 6.806 24.697 21.418V0Zm62.026-35.992c32.22-7.45 44.775-16.163 44.775-31.107 0-16.691-20.786-27.471-52.966-27.471-18.327 0-35.183 3.429-46.257 9.414l-2.027 1.102 11.894 16.277 2.2-1.344c8.247-5.043 21.63-8.173 34.92-8.173 15.375 0 24.926 3.452 24.926 9.018 0 5.41-4.6 9.241-29.728 15.162-19.344 4.515-37.246 11.034-37.246 28.069 0 15.634 20.309 26.127 50.542 26.127 14.514 0 27.453-2.085 39.561-6.387l2.257-.804-7.99-16.392-2.4.971c-9.597 3.871-20.498 5.847-32.404 5.847-14.531 0-23.215-4.676-23.215-9.19 0-3.745 3.687-6.622 23.158-11.119m-163.26-54.242c-12.176-2.516-24.644-4.336-36.912-4.336-21.09 0-33.685 9.391-33.685 25.116V-.027h25.719v-68.341c0-6.203 3.009-8.845 10.056-8.845 6.415 0 15.324 1.602 24.639 3.894zm-108.549 61.062c0-8.759-10.494-13.997-28.068-13.997-4.113 0-7.938.098-11.148.276v26.759c3.434.149 7.409.224 12.193.224 16.92 0 27.023-4.957 27.023-13.262m-26.673 30.486c-11.705 0-23.479-.43-34.058-1.223l-4.129-.316v-93.159h25.644v33.266c2.889-.098 5.921-.149 9.057-.149 34.311 0 55.624 12.285 55.624 32.06 0 17.931-20.463 29.521-52.138 29.521" clip-path="url(#j)" transform="matrix(1.33333 0 0 -1.33333 1663.4842 235.125)"/>
</svg>
