<svg xmlns="http://www.w3.org/2000/svg" xmlns:xlink="http://www.w3.org/1999/xlink" viewBox="0 0 1682.7498 891.9399">
  <defs>
    <path id="a" d="M-1354.0969 503.4738h1638.483v-947.092h-1638.483Z"/>
  </defs>
  <defs>
    <clipPath id="b" clipPathUnits="userSpaceOnUse">
      <use xlink:href="#a"/>
    </clipPath>
    <clipPath id="c" clipPathUnits="userSpaceOnUse">
      <use xlink:href="#a"/>
    </clipPath>
    <clipPath id="d" clipPathUnits="userSpaceOnUse">
      <path d="M-1145.6908 385.5874h1638.483v-947.092h-1638.483Z"/>
    </clipPath>
    <clipPath id="e" clipPathUnits="userSpaceOnUse">
      <path d="M-1214.1429 198.0997h1638.483v-947.092h-1638.483Z"/>
    </clipPath>
    <clipPath id="f" clipPathUnits="userSpaceOnUse">
      <path d="M-1214.1018 198.1102h1638.483v-947.092h-1638.483Z"/>
    </clipPath>
    <clipPath id="g" clipPathUnits="userSpaceOnUse">
      <path d="M-1271.4247 633.345h1638.483v-947.092h-1638.483Z"/>
    </clipPath>
  </defs>
  <path fill="#251915" d="M0 0c0-36.237-19.878-60.991-53.541-60.991-30.47 0-53.522 28.263-53.522 61.653 0 36.195 19.879 60.392 53.522 60.392C-23.03 61.054 0 33.075 0 0m-136.596 0c0-51.136 35.292-86.438 83.055-86.438 47.458 0 83.076 34.325 83.076 87.1 0 52.438-36.543 85.818-83.076 85.818-47.123 0-83.055-33.054-83.055-86.48m-33.546 82.691h-29.324V-82.631h29.324zm-111.031 69.9h-28.82V-30.813c0-39.715 22.726-55.622 52.166-55.622 13.795 0 25.321 2.858 32.948 6.346l-7.05 23.199c-5.736-2.532-14.037-4.781-22.053-4.781-16.947 0-27.191 10.833-27.191 33.706zm-131.635-90.924c28.4 0 45.589-18.061 45.589-50.201h-90.924c3.194 32.749 20.414 50.201 45.335 50.201m71.131-73.41c.63 6.997.924 14.005.924 21.612 0 42.005-23.913 76.614-71.456 76.614-44.642 0-74.943-36.857-74.943-86.48 0-54.676 29.975-86.438 77.486-86.438 23.619 0 42.773 4.781 58.123 11.726l-6.724 24.491c-14.048-6.367-28.704-10.77-47.858-10.77-29.355 0-47.857 18.408-51.693 49.245zm-249.487-49.248c-29.02 0-51.042 25.71-51.042 60.991 0 34.672 19.764 61.674 50.716 61.674 17.577 0 32.875-10.475 40.839-20.656v-81.994c-9.897-11.788-24.869-20.015-40.513-20.015m-6.389-25.447c25.531 0 41.796 13.018 51.346 26.351 4.487-15.865 16.611-24.145 37.047-24.145l6.052 22.253c-9.257 0-18.797 3.205-18.797 19.406v195.161h-28.746V66.139c-8.92 9.204-25.195 20.341-47.238 20.341-40.156 0-73.683-37.183-73.683-87.426 0-52.123 32.844-85.492 74.019-85.492M-771.615 61.667c28.252 0 45.409-18.061 45.409-50.201h-90.451c3.173 32.749 20.288 50.201 45.042 50.201m70.815-73.41c.62 6.997.945 14.005.945 21.612 0 42.005-23.828 76.614-71.088 76.614-44.453 0-74.586-36.857-74.586-86.48 0-54.676 29.807-86.438 77.087-86.438 23.493 0 42.562 4.781 57.765 11.726l-6.65 24.491c-13.963-6.367-28.546-10.77-47.606-10.77-29.176 0-47.616 18.408-51.409 49.245zm-148.416 96.329c-4.465 1.292-11.158 1.891-17.567 1.891-28.463 0-45.389-19.028-53.395-39.715v35.932h-27.779V-82.638h28.735v77.245c0 43.245 23.346 62.935 47.018 62.935 5.421 0 10.538-.957 14.362-2.501zm-184.791-144.677c20.803 0 35.238 5.422 49.675 13.722l9.267-25.174c-15.697-8.542-35.565-14.898-62.504-14.898-58.638 0-98.983 43.865-98.983 114.102 0 68.093 40.345 116.045 102.838 116.045 21.466 0 38.476-4.129 53.847-11.441l-9.299-25.437c-13.112 6.346-26.287 10.496-44.841 10.496-41.355 0-71.456-32.434-71.456-88.381 0-53.416 29.786-89.034 71.456-89.034" clip-path="url(#b)" transform="matrix(1.33333 0 0 -1.33333 1523.2953 487.9261)"/>
  <path fill="none" stroke="#251915" stroke-miterlimit="10" stroke-width="11.839" d="M0 0c0-36.237-19.878-60.991-53.541-60.991-30.47 0-53.522 28.263-53.522 61.653 0 36.195 19.879 60.392 53.522 60.392C-23.03 61.054 0 33.075 0 0Zm-136.596 0c0-51.136 35.292-86.438 83.055-86.438 47.458 0 83.076 34.325 83.076 87.1 0 52.438-36.543 85.818-83.076 85.818-47.123 0-83.055-33.054-83.055-86.48zm-33.546 82.691h-29.324V-82.631h29.324zm-111.031 69.9h-28.82V-30.813c0-39.715 22.726-55.622 52.166-55.622 13.795 0 25.321 2.858 32.948 6.346l-7.05 23.199c-5.736-2.532-14.037-4.781-22.053-4.781-16.947 0-27.191 10.833-27.191 33.706zm-131.635-90.924c28.4 0 45.589-18.061 45.589-50.201h-90.924c3.194 32.749 20.414 50.201 45.335 50.201zm71.131-73.41c.63 6.997.924 14.005.924 21.612 0 42.005-23.913 76.614-71.456 76.614-44.642 0-74.943-36.857-74.943-86.48 0-54.676 29.975-86.438 77.486-86.438 23.619 0 42.773 4.781 58.123 11.726l-6.724 24.491c-14.048-6.367-28.704-10.77-47.858-10.77-29.355 0-47.857 18.408-51.693 49.245zm-249.487-49.248c-29.02 0-51.042 25.71-51.042 60.991 0 34.672 19.764 61.674 50.716 61.674 17.577 0 32.875-10.475 40.839-20.656v-81.994c-9.897-11.788-24.869-20.015-40.513-20.015zm-6.389-25.447c25.531 0 41.796 13.018 51.346 26.351 4.487-15.865 16.611-24.145 37.047-24.145l6.052 22.253c-9.257 0-18.797 3.205-18.797 19.406v195.161h-28.746V66.139c-8.92 9.204-25.195 20.341-47.238 20.341-40.156 0-73.683-37.183-73.683-87.426 0-52.123 32.844-85.492 74.019-85.492zM-771.615 61.667c28.252 0 45.409-18.061 45.409-50.201h-90.451c3.173 32.749 20.288 50.201 45.042 50.201zm70.815-73.41c.62 6.997.945 14.005.945 21.612 0 42.005-23.828 76.614-71.088 76.614-44.453 0-74.586-36.857-74.586-86.48 0-54.676 29.807-86.438 77.087-86.438 23.493 0 42.562 4.781 57.765 11.726l-6.65 24.491c-13.963-6.367-28.546-10.77-47.606-10.77-29.176 0-47.616 18.408-51.409 49.245zm-148.416 96.329c-4.465 1.292-11.158 1.891-17.567 1.891-28.463 0-45.389-19.028-53.395-39.715v35.932h-27.779V-82.638h28.735v77.245c0 43.245 23.346 62.935 47.018 62.935 5.421 0 10.538-.957 14.362-2.501zm-184.791-144.677c20.803 0 35.238 5.422 49.675 13.722l9.267-25.174c-15.697-8.542-35.565-14.898-62.504-14.898-58.638 0-98.983 43.865-98.983 114.102 0 68.093 40.345 116.045 102.838 116.045 21.466 0 38.476-4.129 53.847-11.441l-9.299-25.437c-13.112 6.346-26.287 10.496-44.841 10.496-41.355 0-71.456-32.434-71.456-88.381 0-53.416 29.786-89.034 71.456-89.034z" clip-path="url(#c)" transform="matrix(1.33333 0 0 -1.33333 1523.2953 487.9261)"/>
  <path fill="#65b32e" d="m0 0 43.938 120.437 130.335-37.992Z" clip-path="url(#d)" transform="matrix(1.33333 0 0 -1.33333 1245.4205 330.7443)"/>
  <path fill="#006237" d="m0 0-24.439-66.948 130.261-38.097 153.723 71.76z" clip-path="url(#e)" transform="matrix(1.33333 0 0 -1.33333 1336.6899 80.7607)"/>
  <path fill="#008b39" d="m0 0-461.315 60.581L-24.397-66.938Z" clip-path="url(#f)" transform="matrix(1.33333 0 0 -1.33333 1336.6352 80.7747)"/>
  <path fill="#009c43" d="M0 0v-103.532c0-42.29-36.09-69.607-91.954-69.607-57.188 0-91.334 25.689-91.334 68.714V0h47.732v-101.116c0-26.361 14.257-39.179 43.602-39.179 30.826 0 45.179 12.45 45.179 39.179V0Zm113.466-65.841c58.942-13.627 81.909-29.566 81.909-56.904 0-30.532-38.023-50.253-96.891-50.253-33.527 0-64.364 6.273-84.621 17.22l-3.708 2.018 21.759 29.775 4.024-2.458c15.087-9.225 39.567-14.951 63.88-14.951 28.126 0 45.598 6.314 45.598 16.495 0 9.898-8.415 16.906-54.382 27.738-35.386 8.258-68.135 20.183-68.135 51.346 0 28.599 37.151 47.794 92.458 47.794 26.55 0 50.222-3.814 72.37-11.683l4.129-1.471-14.615-29.986-4.392 1.776c-17.556 7.081-37.498 10.696-59.278 10.696-26.582 0-42.468-8.553-42.468-16.811 0-6.85 6.746-12.114 42.363-20.341m-298.658-99.224c-22.274-4.602-45.084-7.933-67.526-7.933-38.581 0-61.621 17.178-61.621 45.946V-.048h47.048v-125.019c0-11.347 5.506-16.18 18.397-16.18 11.736 0 28.032 2.932 45.074 7.124zM-383.767-53.364c0-16.023-19.196-25.605-51.346-25.605-7.523 0-14.52.179-20.393.504v48.951c6.282.273 13.553.409 22.305.409 30.953 0 49.434-9.067 49.434-24.259M-432.56 2.405c-21.412 0-42.951-.788-62.304-2.238l-7.555-.578v-170.417h46.913v60.854c5.285-.179 10.832-.273 16.568-.273 62.767 0 101.757 22.474 101.757 58.648 0 32.802-37.435 54.004-95.379 54.004" clip-path="url(#g)" transform="matrix(1.33333 0 0 -1.33333 1413.0657 661.0879)"/>
</svg>
