<svg xmlns="http://www.w3.org/2000/svg" xmlns:xlink="http://www.w3.org/1999/xlink" viewBox="0 0 3469.8876 764.2282">
  <defs>
    <path id="a" d="M7585.96 0h3848.5292v1259.668H7585.96Z"/>
  </defs>
  <defs>
    <clipPath id="b" clipPathUnits="userSpaceOnUse">
      <path d="M-1581.9666 649.4404h2886.397v-944.751h-2886.397Z"/>
    </clipPath>
    <clipPath id="d" clipPathUnits="userSpaceOnUse">
      <path d="M-.0025 152.5939h220.8V-.0001h-220.8z"/>
    </clipPath>
    <clipPath id="c" clipPathUnits="userSpaceOnUse">
      <use xlink:href="#a"/>
    </clipPath>
    <clipPath id="e" clipPathUnits="userSpaceOnUse">
      <path d="M-1404.6492 262.5329h2886.397v-944.751h-2886.397Z"/>
    </clipPath>
    <clipPath id="g" clipPathUnits="userSpaceOnUse">
      <path d="M-584.4713 76.7563H.0027v-161.566h-584.474Z"/>
    </clipPath>
    <clipPath id="f" clipPathUnits="userSpaceOnUse">
      <use xlink:href="#a"/>
    </clipPath>
  </defs>
  <path fill="#fff" d="M-392.7504 193.3322V-39.0403c0-50.319 28.7918-70.4722 66.0908-70.4722 17.478 0 32.0811 3.6205 41.7451 8.0405l-8.9311 29.3921c-7.268-3.208-17.786-6.0571-27.942-6.0571-21.472 0-34.4501 13.7246-34.4501 42.7046v228.7646h-36.5127zm-304.9073-.0044V83.7985c-11.302 11.661-31.9196 25.771-59.8476 25.771-50.877 0-93.3545-47.11-93.3545-110.767 0-66.04 41.6113-108.3194 93.7793-108.3194 32.347 0 52.9537 16.4937 65.0537 33.3867 5.684-20.101 21.0455-30.5903 46.9365-30.5903l7.667 28.1938c-11.727 0-23.814 4.06-23.814 24.586v247.2685h-36.4204zm-612.0249-11.2529c-79.177 0-130.2934-60.7553-130.2934-147.0293 0-88.99 51.1162-144.5669 125.4082-144.5669 34.131 0 59.3029 8.0545 79.1909 18.8774l-11.7407 31.8956c-18.291-10.517-36.58-17.3863-62.937-17.3863-52.794 0-90.5318 45.1277-90.5318 112.8047 0 70.886 38.1368 111.9785 90.5318 111.9785 23.508 0 40.1995-5.2578 56.8125-13.2978l11.7817 32.228c-19.475 9.265-41.0262 14.4961-68.2222 14.4961zm1676.5474-67.538c-27.129 0-54.4175-.999-78.9375-2.836l-9.5713-.7324v-215.918h59.4375v77.1035c6.695-.227 13.7223-.3472 20.9912-.3472 79.523 0 128.9224 28.4742 128.9224 74.3072 0 41.56-47.4293 68.4228-120.8423 68.4228zm694.1939-.5391c-70.072 0-117.1421-24.3202-117.1421-60.5552 0-39.483 41.4922-54.5922 86.3262-65.0552 58.238-13.724 68.9004-22.603 68.9004-35.143 0-12.899-22.137-20.9005-57.772-20.9005-30.803 0-61.819 7.2554-80.934 18.9434l-5.0992 3.1143-27.5684-37.7256 4.6993-2.5562c25.665-13.87 64.7349-21.8174 107.2119-21.8174 74.584 0 122.7597 24.987 122.7597 63.671 0 34.637-29.1003 54.8306-103.7783 72.0966-45.126 10.423-53.6719 17.0925-53.6719 25.7725 0 10.463 20.1272 21.2988 53.8052 21.2988 27.594 0 52.86-4.5807 75.104-13.5527l5.565-2.25 18.517 37.9922-5.2324 1.8647c-28.061 9.971-58.0524 14.8023-91.6904 14.8023zm-378.3736-2.5079V-20.8162c0-54.512 43.2618-87.06 115.7169-87.06 70.778 0 116.5034 34.6108 116.5034 88.1908V111.49h-59.2632V-16.6224c0-33.866-18.1843-49.6406-57.2402-49.6406-37.179 0-55.2437 16.2406-55.2437 49.6406V111.49h-60.4732zm-166.0385-.0615v-160.913c0-36.448 29.1917-58.213 78.0717-58.213 28.434 0 57.3342 4.2193 85.5543 10.0503l-23.6001 39.2036c-21.592-5.311-42.2385-9.0249-57.1085-9.0249-16.333 0-23.3085 6.122-23.3085 20.499v158.398h-59.609zm-1493.4068-1.8545c-56.321 0-94.4985-46.6983-94.4985-109.5703 0-69.275 37.765-109.5161 97.667-109.5161 29.764 0 53.9245 6.056 73.1865 14.855l-8.4258 31.0312c-17.691-8.067-36.167-13.645-60.315-13.645-36.9659 0-60.3282 23.3221-65.1342 62.3921h146.3877c.786 8.866 1.1982 17.7458 1.1982 27.3838 0 53.221-30.1899 97.0693-90.0659 97.0693zm454.5059 0c-56.561 0-94.9527-46.6983-94.9527-109.5703 0-69.275 37.9774-109.5161 98.1724-109.5161 29.925 0 54.1926 6.056 73.6406 14.855l-8.5195 31.0312c-17.799-8.067-36.3673-13.645-60.6343-13.645-37.192 0-60.6342 23.3221-65.4932 62.3921h147.1465c.799 8.866 1.172 17.7458 1.172 27.3838 0 53.221-30.2968 97.0693-90.5318 97.0693zm454.4194-.0044c-59.703 0-105.2285-41.8778-105.2285-109.5688 0-64.789 44.7135-109.5176 105.2285-109.5176 60.128 0 105.2534 43.4895 105.2534 110.3555 0 66.439-46.2974 108.731-105.2534 108.731zm122.1592 0v-11.436h22.0854V40.5432h13.7154v57.5903h22.0517v11.436H54.3243zm-1152.5113-.0029c-36.062 0-57.5054-24.1093-67.6494-50.3203v45.5273h-35.1958V-104.702h36.4072v97.8692c0 54.792 29.5784 79.7373 59.5694 79.7373 6.869 0 13.3513-1.21 18.1963-3.167l10.9292 37.4326c-5.657 1.637-14.1369 2.3965-22.2569 2.3965zm1219.5235-.0117-5.0845-69.0264h13.1953l2.54 40.585c.262 6.354.4864 12.9696.4864 19.2846h.7837c1.533-6.054 3.5523-14.1644 4.8223-19.5454l12.4453-39.3164h14.2031l12.4424 38.3452c2.019 6.353 4.038 14.4626 5.83 20.5166h.7486c.262-7.325.263-13.9406.523-19.2846l2.5048-40.585h13.7154l-5.3057 69.0264h-19.809l-11.9224-34.0093c-1.531-5.083-3.0638-10.912-4.8208-17.228h-.2622c-1.757 7.063-3.0271 12.1447-4.5601 17.4887l-11.921 33.7486h-20.5546zm-374.0552-4.7842v-209.4624h37.1543v209.4624h-37.1543zm-496.6816-26.6309c22.27 0 41.6516-13.2709 51.7426-26.1709V-51.9163c-12.54-14.936-31.5086-25.3594-51.3296-25.3594-36.767 0-64.6684 32.5754-64.6684 77.2764 0 43.929 25.0404 78.1391 64.2554 78.1391zm-228.211-.0087c35.794 0 57.5318-22.8826 57.5318-63.6036h-114.5992c4.019 41.493 25.7054 63.6036 57.0674 63.6036zm454.5967 0c35.981 0 57.7603-22.8826 57.7603-63.6036h-115.1983c4.046 41.493 25.863 63.6036 57.438 63.6036zm455.1797-.7764c38.657 0 67.8355-35.448 67.8355-77.354 0-45.913-25.1855-77.2764-67.8355-77.2764-38.604 0-67.8105 35.8093-67.8105 78.1143 0 45.859 25.1865 76.516 67.8105 76.516zm433.8882-2.7393c39.216 0 62.6309-11.4878 62.6309-30.7368 0-20.301-24.3197-32.4419-65.0537-32.4419-9.531 0-18.397.2257-25.837.6387v62.02c7.96.346 17.1708.52 28.2598.52z" clip-path="url(#b)" transform="matrix(1.33333 0 0 -1.33333 1919.968 618.2001)"/>
  <g clip-path="url(#c)" opacity=".5" transform="translate(-7775.2808 -247.7204)">
    <path fill="#fff" d="m0 0 55.668 152.594 165.131-48.136Z" clip-path="url(#d)" transform="matrix(1.33333 0 0 -1.33333 9343.19 666.7719)"/>
  </g>
  <path fill="#fff" d="m0 0-30.963-84.823 165.036-48.269 194.762 90.92z" clip-path="url(#e)" transform="matrix(1.33333 0 0 -1.33333 1683.5448 102.3235)"/>
  <g clip-path="url(#f)" opacity=".5" transform="translate(-7775.2808 -247.7204)">
    <path fill="#fff" d="m0 0-584.472 76.756L-30.91-84.81Z" clip-path="url(#g)" transform="matrix(1.33333 0 0 -1.33333 9458.7563 350.0617)"/>
  </g>
</svg>
